<svg width="486" height="110" viewBox="0 0 486 110" fill="none" xmlns="http://www.w3.org/2000/svg">
<path d="M9 38.1622V10H57C80.5388 10 88.9295 41.1349 68.5782 52.963L23.5 79.1622H58L59.0413 78.8706C63.7845 77.5425 64.9953 71.3808 61.1072 68.3567L57 65.1622L70.5 56.6622C70.5 56.6622 80 60.6622 80 73.1622C80 87.9622 67.3333 94.9956 61 96.6622H9V69.1622L58.272 39.6684C64.3669 36.0201 61.7802 26.6622 54.6768 26.6622H22L46.5 41.1622L31 50.6622L9 38.1622Z" fill="#3CD3FE"/>
<path d="M425.883 99.8004V36.5044H441.247L441.523 46.9004L440.327 46.4404C441.553 42.8831 443.516 40.1537 446.215 38.2524C448.975 36.3511 452.225 35.4004 455.967 35.4004C460.444 35.4004 464.216 36.5351 467.283 38.8044C470.349 41.0124 472.68 44.0791 474.275 48.0044C475.869 51.8684 476.667 56.2844 476.667 61.2524C476.667 66.1591 475.839 70.5751 474.183 74.5004C472.588 78.4257 470.227 81.5231 467.099 83.7924C464.032 86.0004 460.26 87.1044 455.783 87.1044C453.391 87.1044 451.152 86.6751 449.067 85.8164C447.043 84.8964 445.264 83.6391 443.731 82.0444C442.259 80.3884 441.185 78.4564 440.511 76.2484L441.707 75.6964V99.8004H425.883ZM450.999 75.4204C453.881 75.4204 456.151 74.1631 457.807 71.6484C459.524 69.0724 460.383 65.6071 460.383 61.2524C460.383 56.8977 459.524 53.4631 457.807 50.9484C456.151 48.3724 453.881 47.0844 450.999 47.0844C449.036 47.0844 447.349 47.6364 445.939 48.7404C444.589 49.7831 443.547 51.3471 442.811 53.4324C442.075 55.5177 441.707 58.1244 441.707 61.2524C441.707 64.3804 442.075 66.9871 442.811 69.0724C443.547 71.1577 444.589 72.7524 445.939 73.8564C447.349 74.8991 449.036 75.4204 450.999 75.4204Z" fill="white"/>
<path d="M384.914 87.1044C379.762 87.1044 375.53 85.9084 372.218 83.5164C368.906 81.1244 367.25 77.8124 367.25 73.5804C367.25 69.2257 368.661 65.8524 371.482 63.4604C374.303 61.0684 378.413 59.3204 383.81 58.2164L399.174 55.0884C399.174 52.2057 398.53 50.0284 397.242 48.5564C396.015 47.0231 394.237 46.2564 391.906 46.2564C389.575 46.2564 387.735 46.8391 386.386 48.0044C385.098 49.1084 384.27 50.7031 383.902 52.7884L368.078 52.2364C369.059 46.5324 371.605 42.3004 375.714 39.5404C379.823 36.7804 385.221 35.4004 391.906 35.4004C399.634 35.4004 405.399 37.1484 409.202 40.6444C413.066 44.1404 414.998 49.3537 414.998 56.2844V71.9244C414.998 73.4577 415.243 74.4697 415.734 74.9604C416.286 75.4511 417.022 75.6964 417.942 75.6964H419.138V86.0004C418.647 86.1844 417.85 86.3377 416.746 86.4604C415.642 86.5831 414.569 86.6444 413.526 86.6444C411.625 86.6444 409.785 86.3377 408.006 85.7244C406.227 85.0497 404.755 83.8844 403.59 82.2284C402.425 80.5111 401.842 78.0577 401.842 74.8684L403.038 76.0644C402.425 78.2724 401.321 80.2351 399.726 81.9524C398.193 83.6084 396.199 84.8964 393.746 85.8164C391.293 86.6751 388.349 87.1044 384.914 87.1044ZM389.054 76.8004C391.017 76.8004 392.765 76.4017 394.298 75.6044C395.831 74.8071 397.027 73.6417 397.886 72.1084C398.745 70.5751 399.174 68.6737 399.174 66.4044V64.3804L389.606 66.5884C387.705 67.0177 386.202 67.6924 385.098 68.6124C384.055 69.4711 383.534 70.6364 383.534 72.1084C383.534 73.5804 383.994 74.7457 384.914 75.6044C385.834 76.4017 387.214 76.8004 389.054 76.8004Z" fill="white"/>
<path d="M341.157 87.1037C337.661 87.1037 334.656 86.3984 332.141 84.9877C329.688 83.5157 327.756 81.461 326.345 78.8237L326.069 85.9997H310.797V20.6797H326.621V43.5877C327.97 41.1957 329.872 39.233 332.325 37.6997C334.84 36.1664 337.784 35.3997 341.157 35.3997C345.328 35.3997 348.916 36.473 351.921 38.6197C354.988 40.7664 357.349 43.7717 359.005 47.6357C360.722 51.4997 361.581 56.0384 361.581 61.2517C361.581 66.465 360.722 71.0037 359.005 74.8677C357.349 78.7317 354.988 81.737 351.921 83.8837C348.916 86.0304 345.328 87.1037 341.157 87.1037ZM336.189 75.4197C338.888 75.4197 341.065 74.193 342.721 71.7397C344.438 69.225 345.297 65.729 345.297 61.2517C345.297 56.713 344.469 53.217 342.813 50.7637C341.218 48.3104 339.041 47.0837 336.281 47.0837C334.257 47.0837 332.509 47.6357 331.037 48.7397C329.565 49.8437 328.461 51.469 327.725 53.6157C326.989 55.701 326.621 58.2464 326.621 61.2517C326.621 64.1957 326.989 66.741 327.725 68.8877C328.461 70.973 329.534 72.5984 330.945 73.7637C332.417 74.8677 334.165 75.4197 336.189 75.4197Z" fill="white"/>
<path d="M270.633 87.1038C265.481 87.1038 261.249 85.9078 257.937 83.5158C254.625 81.1238 252.969 77.8118 252.969 73.5798C252.969 69.2251 254.379 65.8518 257.201 63.4598C260.022 61.0678 264.131 59.3198 269.529 58.2158L284.893 55.0878C284.893 52.2051 284.249 50.0278 282.961 48.5558C281.734 47.0225 279.955 46.2558 277.625 46.2558C275.294 46.2558 273.454 46.8385 272.105 48.0038C270.817 49.1078 269.989 50.7025 269.621 52.7878L253.797 52.2358C254.778 46.5318 257.323 42.2998 261.433 39.5398C265.542 36.7798 270.939 35.3998 277.625 35.3998C285.353 35.3998 291.118 37.1478 294.921 40.6438C298.785 44.1398 300.717 49.3531 300.717 56.2838V71.9238C300.717 73.4571 300.962 74.4691 301.453 74.9598C302.005 75.4505 302.741 75.6958 303.661 75.6958H304.857V85.9998C304.366 86.1838 303.569 86.3371 302.465 86.4598C301.361 86.5825 300.287 86.6438 299.245 86.6438C297.343 86.6438 295.503 86.3371 293.725 85.7238C291.946 85.0491 290.474 83.8838 289.309 82.2278C288.143 80.5105 287.561 78.0571 287.561 74.8678L288.757 76.0638C288.143 78.2718 287.039 80.2345 285.445 81.9518C283.911 83.6078 281.918 84.8958 279.465 85.8158C277.011 86.6745 274.067 87.1038 270.633 87.1038ZM274.773 76.7998C276.735 76.7998 278.483 76.4011 280.017 75.6038C281.55 74.8065 282.746 73.6411 283.605 72.1078C284.463 70.5745 284.893 68.6731 284.893 66.4038V64.3798L275.325 66.5878C273.423 67.0171 271.921 67.6918 270.817 68.6118C269.774 69.4705 269.253 70.6358 269.253 72.1078C269.253 73.5798 269.713 74.7451 270.633 75.6038C271.553 76.4011 272.933 76.7998 274.773 76.7998ZM272.749 31.1678L264.469 17.0918H279.465L284.709 31.1678H272.749Z" fill="white"/>
<path d="M239.515 85.9997C235.099 85.9997 231.665 84.8957 229.211 82.6877C226.758 80.4797 225.531 76.8917 225.531 71.9237V20.6797H241.355V70.1757C241.355 71.7704 241.723 72.905 242.459 73.5797C243.195 74.2544 244.238 74.5917 245.587 74.5917H248.623V85.9997H239.515Z" fill="white"/>
<path d="M198.76 85.999V36.503H214.584V85.999H198.76ZM198.484 30.983V19.207H214.86V30.983H198.484Z" fill="white"/>
<path d="M164.989 87.1038C159.776 87.1038 155.206 86.0305 151.281 83.8838C147.417 81.7371 144.381 78.7318 142.173 74.8678C140.026 71.0038 138.953 66.4651 138.953 61.2518C138.953 56.0385 140.026 51.4998 142.173 47.6358C144.381 43.7718 147.417 40.7665 151.281 38.6198C155.206 36.4731 159.776 35.3998 164.989 35.3998C170.202 35.3998 174.741 36.4731 178.605 38.6198C182.469 40.7665 185.474 43.7718 187.621 47.6358C189.829 51.4998 190.933 56.0385 190.933 61.2518C190.933 66.4651 189.829 71.0038 187.621 74.8678C185.474 78.7318 182.469 81.7371 178.605 83.8838C174.741 86.0305 170.202 87.1038 164.989 87.1038ZM164.989 75.4198C168.056 75.4198 170.417 74.1931 172.073 71.7398C173.79 69.2865 174.649 65.7905 174.649 61.2518C174.649 56.7745 173.79 53.3091 172.073 50.8558C170.417 48.3411 168.056 47.0838 164.989 47.0838C161.861 47.0838 159.438 48.3411 157.721 50.8558C156.065 53.3091 155.237 56.7745 155.237 61.2518C155.237 65.7905 156.065 69.2865 157.721 71.7398C159.438 74.1931 161.861 75.4198 164.989 75.4198ZM148.521 31.8118L157.537 17.0918H172.441L181.457 31.8118H170.693L163.425 21.4158H166.553L159.285 31.8118H148.521Z" fill="white"/>
<path d="M121.457 86.0001C116.121 86.0001 112.195 84.7734 109.681 82.3201C107.227 79.8054 106 75.8188 106 70.3601V24.9121H121.825V68.3361C121.825 70.7281 122.315 72.3841 123.297 73.3041C124.339 74.1628 125.903 74.5921 127.989 74.5921H134.797V86.0001H121.457ZM97.8125 47.9121V36.5041H134.797V47.9121H97.8125Z" fill="white"/>
<path d="M410.164 20L405.5 32H416.136L423.5 20H410.164Z" fill="white"/>
<path d="M381.549 29.9412C384.076 31.9804 387.408 33 391.543 33C395.678 33 398.981 31.9804 401.451 29.9412C403.978 27.8497 405.328 24.8693 405.5 21H397.229C396.999 22.7778 396.396 24.0588 395.42 24.8431C394.444 25.6274 393.151 26.0196 391.543 26.0196C389.877 26.0196 388.556 25.6274 387.58 24.8431C386.604 24.0588 386.029 22.7778 385.857 21H377.5C377.672 24.8693 379.022 27.8497 381.549 29.9412Z" fill="white"/>
</svg>
