<svg width="128" height="128" viewBox="0 0 128 128" fill="none" xmlns="http://www.w3.org/2000/svg">
  <!-- Background hexagon shape -->
  <path d="M64 8L113.7 36.8V93.2L64 120L14.3 93.2V36.8L64 8Z" fill="#0D1117" stroke="#44D62C" stroke-width="2"/>
  <!-- R letterform -->
  <path d="M42 38h26c8.8 0 16 7.2 16 16v0c0 6.4-3.8 12-9.4 14.6L88 90H76L64 70H54v20H42V38zm12 22h14c3.3 0 6-2.7 6-6s-2.7-6-6-6H54v12z" fill="#44D62C"/>
  <!-- AI dots/nodes -->
  <circle cx="96" cy="38" r="4" fill="#44D62C" opacity="0.7"/>
  <circle cx="106" cy="52" r="3" fill="#44D62C" opacity="0.5"/>
  <circle cx="100" cy="66" r="2.5" fill="#44D62C" opacity="0.4"/>
  <!-- Connection lines -->
  <line x1="96" y1="38" x2="106" y2="52" stroke="#44D62C" stroke-width="1" opacity="0.3"/>
  <line x1="106" y1="52" x2="100" y2="66" stroke="#44D62C" stroke-width="1" opacity="0.3"/>
</svg>
